<svg xmlns="http://www.w3.org/2000/svg" width="189" height="53" viewBox="0 0 189 53" fill="none">
  <path d="M76.7657 31.7521C76.7657 35.435 75.3023 37.283 72.4616 37.283C70.291 37.283 68.471 36.0821 66.9707 33.8537L64.05 37.67C65.9438 40.4588 69.1043 42 72.5784 42C78.6596 42 81.9 38.5307 81.9 31.4586V11.57L76.7657 11.55V31.7521Z" fill="white"/>
  <path d="M99.2019 17.85C92.2377 17.85 87.15 22.8394 87.15 29.9044C87.15 36.9693 92.2443 42 99.2019 42C106.159 42 111.3 36.9693 111.3 29.9044C111.3 22.8394 106.252 17.85 99.2019 17.85ZM99.2019 37.2786C95.3828 37.2786 92.4954 34.4059 92.4954 29.9044C92.4954 25.4029 95.3828 22.5302 99.2019 22.5302C103.021 22.5302 105.948 25.396 105.948 29.9044C105.948 34.4128 103.061 37.2786 99.2019 37.2786Z" fill="white"/>
  <path d="M134.421 21.1251C132.487 18.8755 129.589 17.85 126.302 17.85C119.583 17.85 114.45 22.1837 114.45 28.7734C114.45 35.3632 119.59 39.7829 126.302 39.7829C129.466 39.7829 132.227 38.8037 134.162 36.7659V37.9568C134.162 42.5485 131.879 44.8443 126.698 44.8443C123.451 44.8443 120.109 43.7791 118.052 42.1251L115.591 46.1213C118.271 48.2451 122.618 49.35 127.006 49.35C135.214 49.35 139.65 45.6118 139.65 37.3613V18.108H134.428V21.1251H134.421ZM127.135 35.2772C122.966 35.2772 119.979 32.644 119.979 28.7734C119.979 24.9029 122.966 22.3557 127.135 22.3557C131.305 22.3557 134.251 24.9493 134.251 28.7734C134.251 32.5976 131.264 35.2772 127.135 35.2772Z" fill="white"/>
  <path d="M154.994 17.8569C148.577 17.8569 143.85 22.8861 143.85 29.9078C143.85 36.9295 148.533 42 155.761 42C159.476 42 162.506 40.674 164.442 38.1594L161.739 34.7584C160.205 36.4761 158.307 37.3143 155.881 37.3143C152.128 37.3143 149.501 35.1088 148.897 31.6667H165.818C165.856 31.1377 165.9 30.4712 165.9 30.0315C165.9 22.6594 161.299 17.85 155.001 17.85M148.86 28.0047C149.344 24.5625 151.726 22.2678 155.001 22.2678C158.276 22.2678 160.695 24.6106 161.098 28.0047H148.866H148.86Z" fill="white"/>
  <path d="M181.065 37.573C178.882 37.573 177.698 36.3675 177.698 34.1306V23.2005H184.212V18.9007H177.698V13.65H172.005V18.9007H168V23.2005H172.005V34.2578C172.005 39.3344 175.054 42 180.384 42C182.433 42 184.482 41.4843 185.85 40.4529L184.255 36.622C183.39 37.2649 182.249 37.5663 181.065 37.5663" fill="white"/>
  <path d="M35.4607 25.9215C34.7253 26.2503 34.4885 26.3247 33.7095 26.5604C33.5164 26.6162 33.0926 26.6162 33.024 26.4053C33.0054 26.2875 32.9742 26.2441 33.2733 25.9898C33.7719 25.568 36.5637 23.7817 37.6231 23.1739C38.6762 22.5723 40.2778 21.9273 41.3684 21.4125C41.7049 21.2512 41.7423 21.0589 41.4992 20.7674C41.3497 20.5938 41.144 20.4449 40.9384 20.3395C40.4897 20.1162 40.1345 20.0356 39.6983 19.9797C38.7261 19.8619 37.8225 20.11 36.9376 20.4511C35.6538 20.9721 34.2392 21.7288 32.7062 22.6715C30.5563 23.912 28.4624 25.0718 26.2439 25.9215C25.5522 26.1882 24.848 26.4115 24.15 26.6534C24.15 26.6782 24.1563 26.703 24.1687 26.7216C24.2934 26.7216 24.418 26.734 24.5426 26.7402C27.6523 26.8395 30.7619 26.9449 33.8653 27.0504C36.1025 27.1248 38.3397 27.2178 40.5707 27.2674C41.3247 27.2798 42.085 27.4163 42.8328 27.0194C44.129 26.3309 45.4876 25.7603 46.8585 25.1835C47.2823 25.0036 47.3633 24.7927 47.0954 24.4082C46.9333 24.1725 46.6965 23.9616 46.4597 23.8128C45.9362 23.484 45.5125 23.3414 44.9828 23.2173C43.805 22.9506 42.6646 23.1491 41.5304 23.453C39.3991 24.0298 37.4486 25.0222 35.4482 25.9277" fill="white"/>
  <path d="M26.25 0C11.7554 0 0 11.7554 0 26.25C0 40.7446 11.7554 52.5 26.25 52.5C40.7446 52.5 52.5 40.7446 52.5 26.25C52.5 11.7554 40.7511 0 26.25 0ZM26.25 50.2671C25.5944 50.2671 24.9453 50.2411 24.3027 50.1892C24.1599 50.2022 23.9197 49.9036 23.6276 49.4362C23.6276 49.4362 23.6276 49.4362 23.6341 49.4362C22.576 47.7161 21.5894 45.957 20.8364 44.0875C20.6092 43.5228 20.434 42.9191 20.3756 42.3155C20.2652 41.186 20.7585 40.2578 21.5829 39.5178C22.9525 38.291 24.6272 37.6743 26.3733 37.2329C29.197 36.5254 32.0855 36.2333 34.987 36.1035C38.661 35.9347 42.3349 35.8763 46.0154 35.7789C46.5217 35.766 47.028 35.7724 47.5538 35.7789H48.3068C44.6198 44.3082 36.1359 50.2736 26.2565 50.2736M50.0464 29.567L49.3518 29.554C48.4885 29.554 47.6187 29.5605 46.7554 29.554C45.1326 29.528 43.5033 29.4761 41.8741 29.4436C37.3887 29.3463 32.9099 29.2554 28.4245 29.145C26.4188 29.0996 24.4065 29.0542 22.4073 28.9438C17.5389 28.5414 15.8188 27.1003 16.9418 24.7311C17.4351 23.725 18.2465 22.972 19.0449 22.2125C20.6936 20.6417 22.6474 19.5058 24.6013 18.3763C25.0102 18.1167 25.3737 17.9349 25.6918 17.7661C26.4642 17.3897 27.0938 17.0326 27.0938 16.2277C27.0938 15.3709 26.3863 14.7543 25.536 14.6699C18.8956 14.1506 13.125 16.4874 7.98405 20.8948C5.58884 23.316 3.99852 26.2305 2.97941 29.4631L2.6289 30.6055C2.36925 29.197 2.23943 27.7494 2.23943 26.2695C2.23943 12.9887 12.9887 2.23294 26.25 2.23294C39.5113 2.23294 50.2671 12.9822 50.2671 26.25C50.2671 27.373 50.1892 28.4764 50.0399 29.554" fill="white"/>
  <path d="M188.378 14.0847C187.97 14.4997 187.469 14.7 186.889 14.7C186.31 14.7 185.816 14.4925 185.408 14.0847C185 13.6768 184.8 13.176 184.8 12.5964C184.8 12.0169 185.007 11.5232 185.415 11.1153C185.823 10.7075 186.317 10.5 186.896 10.5C187.476 10.5 187.977 10.7003 188.385 11.1153C188.793 11.5232 189 12.0169 189 12.5964C189 13.176 188.793 13.6768 188.385 14.0847H188.378ZM185.616 11.3157C185.265 11.6663 185.086 12.0956 185.086 12.5964C185.086 13.0973 185.265 13.5266 185.609 13.8843C185.959 14.2421 186.388 14.4138 186.889 14.4138C187.39 14.4138 187.819 14.2349 188.17 13.8843C188.521 13.5266 188.692 13.0973 188.692 12.5964C188.692 12.0956 188.513 11.6734 188.17 11.3157C187.819 10.9579 187.39 10.779 186.889 10.779C186.388 10.779 185.966 10.9579 185.616 11.3157ZM186.853 11.4301C187.14 11.4301 187.347 11.4588 187.483 11.516C187.719 11.6162 187.841 11.8094 187.841 12.1027C187.841 12.3102 187.762 12.4605 187.612 12.5606C187.533 12.6107 187.419 12.6465 187.283 12.6751C187.462 12.7037 187.598 12.7753 187.676 12.9041C187.762 13.0257 187.798 13.1402 187.798 13.2618V13.4336C187.798 13.4908 187.798 13.5409 187.798 13.6053C187.798 13.6625 187.805 13.7055 187.819 13.7269L187.834 13.7555H187.455C187.455 13.7555 187.455 13.7412 187.455 13.7341C187.455 13.7269 187.455 13.7198 187.455 13.7055V13.6339L187.447 13.4479C187.447 13.1831 187.376 13.0043 187.233 12.9184C187.147 12.8683 186.997 12.8468 186.782 12.8468H186.46V13.7555H186.052V11.4516H186.861L186.853 11.4301ZM187.29 11.7951C187.19 11.7378 187.025 11.7092 186.796 11.7092H186.446V12.5463H186.811C186.982 12.5463 187.111 12.532 187.197 12.4962C187.354 12.4319 187.433 12.3174 187.433 12.1385C187.433 11.9739 187.383 11.8595 187.283 11.8022L187.29 11.7951Z" fill="white"/>
  <path d="M76.7657 31.7521C76.7657 35.435 75.3023 37.283 72.4616 37.283C70.291 37.283 68.471 36.0821 66.9707 33.8537L64.05 37.67C65.9438 40.4588 69.1043 42 72.5784 42C78.6596 42 81.9 38.5307 81.9 31.4586V11.57L76.7657 11.55V31.7521Z" fill="white"/>
  <path d="M99.2019 17.85C92.2377 17.85 87.15 22.8394 87.15 29.9044C87.15 36.9693 92.2443 42 99.2019 42C106.159 42 111.3 36.9693 111.3 29.9044C111.3 22.8394 106.252 17.85 99.2019 17.85ZM99.2019 37.2786C95.3828 37.2786 92.4954 34.4059 92.4954 29.9044C92.4954 25.4029 95.3828 22.5302 99.2019 22.5302C103.021 22.5302 105.948 25.396 105.948 29.9044C105.948 34.4128 103.061 37.2786 99.2019 37.2786Z" fill="white"/>
  <path d="M134.421 21.1251C132.487 18.8755 129.589 17.85 126.302 17.85C119.583 17.85 114.45 22.1837 114.45 28.7734C114.45 35.3632 119.59 39.7829 126.302 39.7829C129.466 39.7829 132.227 38.8037 134.162 36.7659V37.9568C134.162 42.5485 131.879 44.8443 126.698 44.8443C123.451 44.8443 120.109 43.7791 118.052 42.1251L115.591 46.1213C118.271 48.2451 122.618 49.35 127.006 49.35C135.214 49.35 139.65 45.6118 139.65 37.3613V18.108H134.428V21.1251H134.421ZM127.135 35.2772C122.966 35.2772 119.979 32.644 119.979 28.7734C119.979 24.9029 122.966 22.3557 127.135 22.3557C131.305 22.3557 134.251 24.9493 134.251 28.7734C134.251 32.5976 131.264 35.2772 127.135 35.2772Z" fill="white"/>
  <path d="M154.994 17.8569C148.577 17.8569 143.85 22.8861 143.85 29.9078C143.85 36.9295 148.533 42 155.761 42C159.476 42 162.506 40.674 164.442 38.1594L161.739 34.7584C160.205 36.4761 158.307 37.3143 155.881 37.3143C152.128 37.3143 149.501 35.1088 148.897 31.6667H165.818C165.856 31.1377 165.9 30.4712 165.9 30.0315C165.9 22.6594 161.299 17.85 155.001 17.85M148.86 28.0047C149.344 24.5625 151.726 22.2678 155.001 22.2678C158.276 22.2678 160.695 24.6106 161.098 28.0047H148.866H148.86Z" fill="white"/>
  <path d="M181.065 37.573C178.882 37.573 177.698 36.3675 177.698 34.1306V23.2005H184.212V18.9007H177.698V13.65H172.005V18.9007H168V23.2005H172.005V34.2578C172.005 39.3344 175.054 42 180.384 42C182.433 42 184.482 41.4843 185.85 40.4529L184.255 36.622C183.39 37.2649 182.249 37.5663 181.065 37.5663" fill="white"/>
  <path d="M35.4607 25.9215C34.7253 26.2503 34.4885 26.3247 33.7095 26.5604C33.5164 26.6162 33.0926 26.6162 33.024 26.4053C33.0054 26.2875 32.9742 26.2441 33.2733 25.9898C33.7719 25.568 36.5637 23.7817 37.6231 23.1739C38.6762 22.5723 40.2778 21.9273 41.3684 21.4125C41.7049 21.2512 41.7423 21.0589 41.4992 20.7674C41.3497 20.5938 41.144 20.4449 40.9384 20.3395C40.4897 20.1162 40.1345 20.0356 39.6983 19.9797C38.7261 19.8619 37.8225 20.11 36.9376 20.4511C35.6538 20.9721 34.2392 21.7288 32.7062 22.6715C30.5563 23.912 28.4624 25.0718 26.2439 25.9215C25.5522 26.1882 24.848 26.4115 24.15 26.6534C24.15 26.6782 24.1563 26.703 24.1687 26.7216C24.2934 26.7216 24.418 26.734 24.5426 26.7402C27.6523 26.8395 30.7619 26.9449 33.8653 27.0504C36.1025 27.1248 38.3397 27.2178 40.5707 27.2674C41.3247 27.2798 42.085 27.4163 42.8328 27.0194C44.129 26.3309 45.4876 25.7603 46.8585 25.1835C47.2823 25.0036 47.3633 24.7927 47.0954 24.4082C46.9333 24.1725 46.6965 23.9616 46.4597 23.8128C45.9362 23.484 45.5125 23.3414 44.9828 23.2173C43.805 22.9506 42.6646 23.1491 41.5304 23.453C39.3991 24.0298 37.4486 25.0222 35.4482 25.9277" fill="white"/>
  <path d="M26.25 0C11.7554 0 0 11.7554 0 26.25C0 40.7446 11.7554 52.5 26.25 52.5C40.7446 52.5 52.5 40.7446 52.5 26.25C52.5 11.7554 40.7511 0 26.25 0ZM26.25 50.2671C25.5944 50.2671 24.9453 50.2411 24.3027 50.1892C24.1599 50.2022 23.9197 49.9036 23.6276 49.4362C23.6276 49.4362 23.6276 49.4362 23.6341 49.4362C22.576 47.7161 21.5894 45.957 20.8364 44.0875C20.6092 43.5228 20.434 42.9191 20.3756 42.3155C20.2652 41.186 20.7585 40.2578 21.5829 39.5178C22.9525 38.291 24.6272 37.6743 26.3733 37.2329C29.197 36.5254 32.0855 36.2333 34.987 36.1035C38.661 35.9347 42.3349 35.8763 46.0154 35.7789C46.5217 35.766 47.028 35.7724 47.5538 35.7789H48.3068C44.6198 44.3082 36.1359 50.2736 26.2565 50.2736M50.0464 29.567L49.3518 29.554C48.4885 29.554 47.6187 29.5605 46.7554 29.554C45.1326 29.528 43.5033 29.4761 41.8741 29.4436C37.3887 29.3463 32.9099 29.2554 28.4245 29.145C26.4188 29.0996 24.4065 29.0542 22.4073 28.9438C17.5389 28.5414 15.8188 27.1003 16.9418 24.7311C17.4351 23.725 18.2465 22.972 19.0449 22.2125C20.6936 20.6417 22.6474 19.5058 24.6013 18.3763C25.0102 18.1167 25.3737 17.9349 25.6918 17.7661C26.4642 17.3897 27.0938 17.0326 27.0938 16.2277C27.0938 15.3709 26.3863 14.7543 25.536 14.6699C18.8956 14.1506 13.125 16.4874 7.98405 20.8948C5.58884 23.316 3.99852 26.2305 2.97941 29.4631L2.6289 30.6055C2.36925 29.197 2.23943 27.7494 2.23943 26.2695C2.23943 12.9887 12.9887 2.23294 26.25 2.23294C39.5113 2.23294 50.2671 12.9822 50.2671 26.25C50.2671 27.373 50.1892 28.4764 50.0399 29.554" fill="white"/>
  <path d="M188.378 14.0847C187.97 14.4997 187.469 14.7 186.889 14.7C186.31 14.7 185.816 14.4925 185.408 14.0847C185 13.6768 184.8 13.176 184.8 12.5964C184.8 12.0169 185.007 11.5232 185.415 11.1153C185.823 10.7075 186.317 10.5 186.896 10.5C187.476 10.5 187.977 10.7003 188.385 11.1153C188.793 11.5232 189 12.0169 189 12.5964C189 13.176 188.793 13.6768 188.385 14.0847H188.378ZM185.616 11.3157C185.265 11.6663 185.086 12.0956 185.086 12.5964C185.086 13.0973 185.265 13.5266 185.609 13.8843C185.959 14.2421 186.388 14.4138 186.889 14.4138C187.39 14.4138 187.819 14.2349 188.17 13.8843C188.521 13.5266 188.692 13.0973 188.692 12.5964C188.692 12.0956 188.513 11.6734 188.17 11.3157C187.819 10.9579 187.39 10.779 186.889 10.779C186.388 10.779 185.966 10.9579 185.616 11.3157ZM186.853 11.4301C187.14 11.4301 187.347 11.4588 187.483 11.516C187.719 11.6162 187.841 11.8094 187.841 12.1027C187.841 12.3102 187.762 12.4605 187.612 12.5606C187.533 12.6107 187.419 12.6465 187.283 12.6751C187.462 12.7037 187.598 12.7753 187.676 12.9041C187.762 13.0257 187.798 13.1402 187.798 13.2618V13.4336C187.798 13.4908 187.798 13.5409 187.798 13.6053C187.798 13.6625 187.805 13.7055 187.819 13.7269L187.834 13.7555H187.455C187.455 13.7555 187.455 13.7412 187.455 13.7341C187.455 13.7269 187.455 13.7198 187.455 13.7055V13.6339L187.447 13.4479C187.447 13.1831 187.376 13.0043 187.233 12.9184C187.147 12.8683 186.997 12.8468 186.782 12.8468H186.46V13.7555H186.052V11.4516H186.861L186.853 11.4301ZM187.29 11.7951C187.19 11.7378 187.025 11.7092 186.796 11.7092H186.446V12.5463H186.811C186.982 12.5463 187.111 12.532 187.197 12.4962C187.354 12.4319 187.433 12.3174 187.433 12.1385C187.433 11.9739 187.383 11.8595 187.283 11.8022L187.29 11.7951Z" fill="white"/>
</svg>